<svg width="145" height="40" viewBox="0 0 145 40" fill="none" xmlns="http://www.w3.org/2000/svg">
<g clip-path="url(#clip0_1284_3789)">
<path d="M8.91612 34.5989C4.65449 34.5989 0.664062 31.3446 0.664062 25.727V14.2981C0.664062 8.25433 4.65449 5 9.96216 5C14.9986 5 18.4079 8.25433 18.4079 14.2981V14.4012C18.4079 14.9648 17.9511 15.4216 17.3876 15.4216H13.7719C13.2084 15.4216 12.7516 14.9648 12.7516 14.4012V14.1044C12.7516 11.6249 11.783 9.8815 9.49725 9.92024C7.17273 9.95898 6.24292 12.3222 6.24292 14.9954V24.2548C6.24292 27.1605 7.01776 29.7562 9.49725 29.7562C11.5033 29.7562 12.5819 28.4976 12.7331 24.5411C12.7546 23.9779 12.2947 23.5187 11.7312 23.5187H11.3699C10.8064 23.5187 10.3496 23.0619 10.3496 22.4983V19.89C10.3496 19.3265 10.8064 18.8697 11.3699 18.8697H17.3876C17.9511 18.8697 18.4079 19.3265 18.4079 19.89V32.9974C18.4079 33.561 17.9511 34.0178 17.3876 34.0178H15.7393C15.2976 34.0178 14.906 33.7336 14.7691 33.3135L13.8927 30.6238C13.8822 30.5916 13.8522 30.5698 13.8183 30.5698C13.7832 30.5698 13.7523 30.5934 13.7426 30.6271C13.0701 32.9599 11.2218 34.5989 8.91612 34.5989Z" fill="white"/>
<path d="M31.0475 35.3738C26.5534 35.2963 24.9263 30.0274 26.166 25.3396C27.1346 21.814 29.5753 18.366 32.7522 16.5839C33.1532 16.3583 33.5705 16.1327 33.9936 15.928C34.4008 15.7311 34.6593 15.3077 34.6009 14.8592C34.3131 12.6484 33.5226 8.63286 31.3962 8.56427C26.6051 8.41455 22.3927 23.1278 22.1129 32.9987C22.0969 33.562 21.6413 34.0178 21.0777 34.0178H19.5542C18.9907 34.0178 18.5328 33.561 18.5446 32.9976C18.6477 28.0966 19.4846 22.8805 20.8971 18.1723C22.6405 12.4385 26.2048 4.38013 32.171 5.03874C36.0619 5.47858 37.3041 10.0606 37.8403 13.253C37.9499 13.9055 38.5586 14.171 38.9711 13.6538C39.4587 13.0424 39.9244 12.3931 40.2883 12.6247C40.8835 13.0034 40.8835 14.878 40.2883 15.9834C39.7779 16.9312 39.2988 17.4102 38.76 17.989C38.5824 18.1798 38.4906 18.4337 38.495 18.6943C38.5166 19.9734 38.4748 21.3321 38.3698 22.6276C38.2148 24.9134 37.8661 35.5287 31.0475 35.3738ZM29.3816 27.8191C29.2266 29.2913 29.5753 31.577 31.0475 31.8095C32.9459 32.1194 33.9532 29.175 34.4568 26.0369C34.7341 24.2974 34.8638 22.4922 34.9206 21.1445C34.9529 20.3762 34.1455 19.896 33.532 20.3596C31.1067 22.1925 29.6764 24.9365 29.3816 27.8191Z" fill="white"/>
<path d="M42.1932 34.0178C41.6297 34.0178 41.1728 33.561 41.1728 32.9974V6.64024C41.1728 6.0767 41.6297 5.61987 42.1932 5.61987H45.8088C46.3723 5.61987 46.8292 6.07671 46.8292 6.64024V32.9974C46.8292 33.561 46.3723 34.0178 45.8088 34.0178H42.1932Z" fill="white"/>
<path d="M61.0672 34.0178C60.6734 34.0178 60.3147 33.7912 60.1456 33.4356L53.3133 19.0653C53.3015 19.0404 53.2764 19.0246 53.2489 19.0246C53.2096 19.0246 53.1777 19.0565 53.1777 19.0958V32.9974C53.1777 33.561 52.7209 34.0178 52.1573 34.0178H48.5417C47.9782 34.0178 47.5214 33.561 47.5214 32.9974V6.64024C47.5214 6.0767 47.9782 5.61987 48.5417 5.61987H52.4955C52.9084 5.61987 53.2806 5.86875 53.4384 6.25035L60.2884 22.817C60.2992 22.8431 60.3246 22.8601 60.3528 22.8601C60.3913 22.8601 60.4225 22.8289 60.4225 22.7904V6.64024C60.4225 6.0767 60.8793 5.61987 61.4428 5.61987H65.0584C65.622 5.61987 66.0788 6.07671 66.0788 6.64024V32.9974C66.0788 33.561 65.622 34.0178 65.0584 34.0178H61.0672Z" fill="white"/>
</g>
<defs>
<clipPath id="clip0_1284_3789">
<rect width="143.862" height="40" fill="white" transform="translate(0.664062)"/>
</clipPath>
</defs>
</svg>
