<svg width="145" height="40" viewBox="0 0 145 40" fill="none" xmlns="http://www.w3.org/2000/svg">
<g clip-path="url(#clip0_1284_3711)">
<path d="M20.3997 1.19939L14.6421 4.45702C12.5609 5.63453 12.3757 8.56232 14.292 9.99265L20.1707 14.3806C21.368 15.2744 21.2527 17.1037 19.9526 17.84L14.6478 20.8443C12.5653 22.0236 12.3832 24.9547 14.3037 26.3828L19.9007 30.5448C20.4814 30.9766 20.8237 31.6577 20.8237 32.3814V32.5527C20.8237 33.0796 21.3925 33.4102 21.8502 33.1493L27.6381 29.8502C29.7204 28.6634 29.8911 25.7259 27.9603 24.3059L22.0857 19.9852C20.8797 19.0982 20.9854 17.2636 22.2853 16.521L27.6488 13.457C29.7278 12.2693 29.8978 9.33563 27.97 7.91563L22.3558 3.78033C21.7702 3.34896 21.4244 2.6649 21.4244 1.93753V1.797C21.4244 1.2711 20.8575 0.940433 20.3997 1.19939Z" fill="white"/>
<path d="M7.77443 6.37171L2.01674 9.62934C-0.0644502 10.8068 -0.249614 13.7346 1.66665 15.165L7.54535 19.553C8.74272 20.4467 8.62741 22.276 7.32729 23.0123L2.02246 26.0166C-0.0599796 27.1959 -0.24209 30.1271 1.67836 31.5551L7.27533 35.7171C7.85606 36.1489 8.19834 36.83 8.19834 37.5537V37.7251C8.19834 38.2519 8.76721 38.5825 9.22492 38.3216L15.0128 35.0225C17.0951 33.8357 17.2658 30.8982 15.335 29.4782L9.46041 25.1576C8.25437 24.2705 8.36007 22.436 9.66001 21.6933L15.0234 18.6293C17.1024 17.4416 17.2725 14.508 15.3447 13.0879L9.73048 8.95265C9.14484 8.52128 8.79911 7.83722 8.79911 7.10985V6.96931C8.79911 6.44342 8.23213 6.11275 7.77443 6.37171Z" fill="white"/>
<path d="M50.8016 29.9542C50.7151 29.9542 50.633 29.9161 50.5771 29.8501L42.9837 20.8891C42.8065 20.68 42.4648 20.8053 42.4648 21.0794V29.6598C42.4648 29.8224 42.333 29.9542 42.1705 29.9542H39.2838C39.1213 29.9542 38.9895 29.8224 38.9895 29.6598V9.06073C38.9895 8.89818 39.1213 8.7664 39.2838 8.7664H42.1705C42.333 8.7664 42.4648 8.89818 42.4648 9.06073V17.8148C42.4648 18.09 42.8087 18.2147 42.9851 18.0034L50.6075 8.87211C50.6634 8.80512 50.7462 8.7664 50.8334 8.7664H54.401C54.6547 8.7664 54.7895 9.06605 54.6212 9.25596L45.8271 19.1784C45.7276 19.2907 45.7284 19.4597 45.8289 19.571L54.7635 29.4625C54.9344 29.6518 54.8001 29.9542 54.5451 29.9542H50.8016Z" fill="white"/>
<path d="M71.1789 21.1437C71.1789 21.673 71.1502 22.1593 71.0928 22.6025C71.0743 22.746 70.9506 22.8509 70.806 22.8509H58.5402C58.3689 22.8509 58.2331 22.997 58.2546 23.1669C58.4063 24.3625 58.8936 25.3343 59.7165 26.0824C60.6107 26.8954 61.7082 27.3019 63.0089 27.3019C64.8126 27.3019 66.1057 26.5737 66.8881 25.1173C66.9411 25.0186 67.0429 24.9545 67.1549 24.9545H70.3149C70.5154 24.9545 70.657 25.1505 70.5849 25.3375C70.0554 26.7103 69.1763 27.8529 67.9475 28.7652C66.6265 29.7408 64.9803 30.2285 63.0089 30.2285C61.4034 30.2285 59.9604 29.8729 58.68 29.1615C57.42 28.4299 56.4241 27.4137 55.6925 26.1129C54.9812 24.7919 54.6255 23.2676 54.6255 21.54C54.6255 19.8125 54.971 18.2984 55.662 16.9976C56.3733 15.6766 57.359 14.6604 58.6191 13.949C59.8994 13.2377 61.3627 12.882 63.0089 12.882C64.5941 12.882 66.0066 13.2275 67.2463 13.9185C68.486 14.6095 69.4514 15.5851 70.1424 16.8452C70.8334 18.0849 71.1789 19.5178 71.1789 21.1437ZM67.2632 20.5474C67.4232 20.5415 67.5498 20.4088 67.5395 20.249C67.4608 19.0359 67.0074 17.6823 66.1793 16.9671C65.2851 16.1948 64.1775 15.8087 62.8565 15.8087C61.6574 15.8087 60.6311 16.1948 59.7775 16.9671C58.8793 17.7798 58.4852 19.2903 58.3 20.5375C58.2734 20.7169 58.4178 20.8741 58.5991 20.8674L67.2632 20.5474Z" fill="white"/>
<path d="M86.1598 16.3125C86.7982 15.1478 87.552 14.2031 88.5681 13.6746C89.5843 13.1462 90.7326 12.882 92.0129 12.882C93.4762 12.882 94.8074 13.2478 96.0065 13.9795C97.2259 14.6908 98.1811 15.6969 98.8721 16.9976C99.5631 18.2984 99.9085 19.7922 99.9085 21.4791C99.9085 23.1659 99.5631 24.6801 98.8721 26.0215C98.1811 27.3425 97.2259 28.3791 96.0065 29.131C94.8074 29.8627 93.4762 30.2285 92.0129 30.2285C90.7326 30.2285 89.5945 29.9745 88.5986 29.4664C87.6028 28.938 86.6427 27.9442 86.1598 26.8285V37.6472C86.1598 37.8097 86.028 37.9415 85.8655 37.9415H82.9788C82.8163 37.9415 82.6845 37.8097 82.6845 37.6472V13.4507C82.6845 13.2882 82.8163 13.1564 82.9788 13.1564H85.8655C86.028 13.1564 86.1598 13.2882 86.1598 13.4507V16.3125ZM96.3723 21.4791C96.3723 20.3206 96.1284 19.3247 95.6407 18.4914C95.1732 17.6378 94.5432 16.9976 93.7506 16.5708C92.9783 16.1237 92.145 15.9001 91.2508 15.9001C90.3769 15.9001 89.5436 16.1237 88.751 16.5708C87.9787 17.0179 87.3487 17.6683 86.861 18.5219C86.3935 19.3755 86.1598 20.3816 86.1598 21.54C86.1598 22.6985 86.3935 23.7147 86.861 24.5886C87.3487 25.4422 87.9787 26.0926 88.751 26.5397C89.5436 26.9869 90.3769 27.2104 91.2508 27.2104C92.145 27.2104 92.9783 26.9869 93.7506 26.5397C94.5432 26.0723 95.1732 25.4016 95.6407 24.5277C96.1284 23.6537 96.3723 22.6375 96.3723 21.4791Z" fill="white"/>
<path d="M77.4672 30.1994C75.8233 30.1994 75.4215 29.8182 74.9919 29.3878C74.3736 28.789 74.0644 27.8082 74.0644 26.4453V8.61491C74.0644 8.45235 74.1962 8.32057 74.3587 8.32057H77.0469C77.2094 8.32057 77.3412 8.44195 77.3412 8.60451C77.3412 10.8179 77.3412 25.2369 77.3412 25.7309C77.3412 26.1093 77.5383 26.3381 77.6503 26.4504C77.7624 26.5626 77.929 26.7447 78.5778 26.7267C78.9692 26.7267 79.3356 26.7267 79.7056 26.7267C79.8682 26.7267 80 26.8585 80 27.0211V29.9051C80 30.0677 79.8682 30.1994 79.7056 30.1994C79.3466 30.1994 79.0131 30.1994 78.7038 30.1994C78.3116 30.1994 77.9412 30.1994 77.4672 30.1994Z" fill="white"/>
</g>
<defs>
<clipPath id="clip0_1284_3711">
<rect width="143.862" height="40" fill="white" transform="translate(0.335938)"/>
</clipPath>
</defs>
</svg>
