<svg width="144" height="40" viewBox="0 0 144 40" fill="none" xmlns="http://www.w3.org/2000/svg">
  <g clip-path="url(#clip0_1284_3440)">
    <path d="M23.1525 31.4422H6.61875V34.7395H23.1525V31.4422Z" fill="white"/>
    <path d="M13.2349 21.5328H9.92813V24.8301H13.2349V21.5328Z" fill="white"/>
    <path d="M19.8442 21.5328H16.5375V24.8301H19.8442V21.5328Z" fill="white"/>
    <path d="M23.1525 5H6.61875V8.29733H23.1525V5Z" fill="white"/>
    <path d="M16.5442 24.8375H13.2375V28.1348H16.5442V24.8375Z" fill="white"/>
    <path d="M16.5442 11.6141H13.2375V14.9114H16.5442V11.6141Z" fill="white"/>
    <path d="M19.8442 14.9187H16.5375V18.2161H19.8442V14.9187Z" fill="white"/>
    <path d="M13.2349 14.9187H9.92813V18.2161H13.2349V14.9187Z" fill="white"/>
    <path d="M29.7583 11.6047H26.4516V28.1384H29.7583V11.6047Z" fill="white"/>
    <path d="M3.30674 18.2182V11.6047H0V18.2182H0.00958965V28.1384H3.31633V18.2182H3.30674Z" fill="white"/>
    <path d="M52.7599 29.1588H54.1239V31.7939H50.6518V30.2748H49.2878V28.6628H48.0168V26.9888H46.7457V25.2527H45.5057V23.4547H43.7387V21.6876H42.0026V20.3546H39.4916V31.7939H36.3605V8.54333H39.4916V17.5335H42.0026V15.6425H44.0487V13.7205H46.1567V11.8294H48.2338V9.93836H50.3418V8.57433H53.5039V11.2094H51.3958V12.5734H49.3188V14.4645H47.2107V16.3555H45.1647V20.8196H46.9007V22.3077H48.6678V24.3537H50.2178V26.0277H51.4888V27.6398H52.7599V29.1588Z" fill="white"/>
    <path d="M71.3392 11.2404H59.745V18.2466H67.2471V19.6106H69.6652V22.2456H66.4721V20.8816H59.745V29.0658H71.3392V31.7939H56.6139V8.54333H71.3392V11.2404Z" fill="white"/>
    <path d="M89.279 29.1588H90.643V31.7939H87.1709V30.2748H85.8069V28.6628H84.5359V26.9888H83.2648V25.2527H81.7148V22.1837H76.9407V31.7939H73.8096V8.54333H85.0939V10.6204H87.9459V12.3874H89.93V14.9295C89.93 18.9596 88.2559 20.9126 85.1869 21.7186V24.3537H86.7369V26.0277H88.0079V27.6398H89.279V29.1588ZM80.2887 19.5486C84.6908 19.5486 86.7989 18.9906 86.7989 15.0535V13.2554H84.4738V11.1784H76.9407V19.5486H80.2887Z" fill="white"/>
    <path d="M107.416 8.54333H110.547V31.7939H107.416V24.5087H105.494V22.7727H104.006V20.9436H102.704V19.2386H101.185V17.3475H99.6037V15.6115H98.1156V13.7825H96.8136V12.0774H96.2556V31.7939H93.1245V8.54333H98.2086V10.2484H99.7277V12.1084H101.03V13.8135H102.518V15.7045H104.099V17.4095H105.618V19.2696H106.92V20.9746H107.416V8.54333Z" fill="white"/>
    <path d="M127.74 11.2404H116.146V18.2466H123.648V19.6106H126.066V22.2456H122.873V20.8816H116.146V29.0658H127.74V31.7939H113.015V8.54333H127.74V11.2404Z" fill="white"/>
    <path d="M133.341 29.2208H144.936V31.8559H131.326V31.7939H130.21V8.54333H133.341V29.2208Z" fill="white"/>
  </g>
  <defs>
    <clipPath id="clip0_1284_3440">
      <rect width="143.862" height="40" fill="white"/>
    </clipPath>
  </defs>
</svg>